# Blender 5.1.2
# www.blender.org
mtllib OptimizedSmallPillar.mtl
o Cube.002
v -1.100000 0.000000 0.100000
v -1.100000 5.000000 0.100000
v -1.100000 0.000000 -0.100000
v -1.100000 5.000000 -0.100000
v -0.900000 0.000000 0.100000
v -0.900000 5.000000 0.100000
v -0.900000 0.000000 -0.100000
v -0.900000 5.000000 -0.100000
vn -1.0000 -0.0000 -0.0000
vn -0.0000 -0.0000 -1.0000
vn 1.0000 -0.0000 -0.0000
vn -0.0000 -0.0000 1.0000
vt 0.450000 1.000000
vt 0.450000 0.000000
vt 0.475000 0.000000
vt 0.475000 1.000000
vt 0.500000 0.000000
vt 0.500000 1.000000
vt 0.525000 0.000000
vt 0.525000 1.000000
vt 0.550000 0.000000
vt 0.550000 1.000000
s 0
usemtl Material.001
f 1/1/1 2/2/1 4/3/1 3/4/1
f 3/4/2 4/3/2 8/5/2 7/6/2
f 7/6/3 8/5/3 6/7/3 5/8/3
f 5/8/4 6/7/4 2/9/4 1/10/4
o Cube.003
v 1.900000 0.000000 -0.900000
v 1.900000 5.000000 -0.900000
v 1.900000 0.000000 -1.100000
v 1.900000 5.000000 -1.100000
v 2.100000 0.000000 -0.900000
v 2.100000 5.000000 -0.900000
v 2.100000 0.000000 -1.100000
v 2.100000 5.000000 -1.100000
vn -1.0000 -0.0000 -0.0000
vn -0.0000 -0.0000 -1.0000
vn 1.0000 -0.0000 -0.0000
vn -0.0000 -0.0000 1.0000
vt 0.450000 1.000000
vt 0.450000 0.000000
vt 0.475000 0.000000
vt 0.475000 1.000000
vt 0.500000 0.000000
vt 0.500000 1.000000
vt 0.525000 0.000000
vt 0.525000 1.000000
vt 0.550000 0.000000
vt 0.550000 1.000000
s 0
usemtl Material.001
f 9/11/5 10/12/5 12/13/5 11/14/5
f 11/14/6 12/13/6 16/15/6 15/16/6
f 15/16/7 16/15/7 14/17/7 13/18/7
f 13/18/8 14/17/8 10/19/8 9/20/8
o Cube.004
v -2.100000 0.000000 -0.900000
v -2.100000 5.000000 -0.900000
v -2.100000 0.000000 -1.100000
v -2.100000 5.000000 -1.100000
v -1.900000 0.000000 -0.900000
v -1.900000 5.000000 -0.900000
v -1.900000 0.000000 -1.100000
v -1.900000 5.000000 -1.100000
vn -1.0000 -0.0000 -0.0000
vn -0.0000 -0.0000 -1.0000
vn 1.0000 -0.0000 -0.0000
vn -0.0000 -0.0000 1.0000
vt 0.450000 1.000000
vt 0.450000 0.000000
vt 0.475000 0.000000
vt 0.475000 1.000000
vt 0.500000 0.000000
vt 0.500000 1.000000
vt 0.525000 0.000000
vt 0.525000 1.000000
vt 0.550000 0.000000
vt 0.550000 1.000000
s 0
usemtl Material.001
f 17/21/9 18/22/9 20/23/9 19/24/9
f 19/24/10 20/23/10 24/25/10 23/26/10
f 23/26/11 24/25/11 22/27/11 21/28/11
f 21/28/12 22/27/12 18/29/12 17/30/12
o Cube.005
v -0.100000 0.000000 -0.900000
v -0.100000 5.000000 -0.900000
v -0.100000 0.000000 -1.100000
v -0.100000 5.000000 -1.100000
v 0.100000 0.000000 -0.900000
v 0.100000 5.000000 -0.900000
v 0.100000 0.000000 -1.100000
v 0.100000 5.000000 -1.100000
vn -1.0000 -0.0000 -0.0000
vn -0.0000 -0.0000 -1.0000
vn 1.0000 -0.0000 -0.0000
vn -0.0000 -0.0000 1.0000
vt 0.450000 1.000000
vt 0.450000 0.000000
vt 0.475000 0.000000
vt 0.475000 1.000000
vt 0.500000 0.000000
vt 0.500000 1.000000
vt 0.525000 0.000000
vt 0.525000 1.000000
vt 0.550000 0.000000
vt 0.550000 1.000000
s 0
usemtl Material.001
f 25/31/13 26/32/13 28/33/13 27/34/13
f 27/34/14 28/33/14 32/35/14 31/36/14
f 31/36/15 32/35/15 30/37/15 29/38/15
f 29/38/16 30/37/16 26/39/16 25/40/16
o Cube.006
v 1.900000 0.000000 -2.900000
v 1.900000 5.000000 -2.900000
v 1.900000 0.000000 -3.100000
v 1.900000 5.000000 -3.100000
v 2.100000 0.000000 -2.900000
v 2.100000 5.000000 -2.900000
v 2.100000 0.000000 -3.100000
v 2.100000 5.000000 -3.100000
vn -1.0000 -0.0000 -0.0000
vn -0.0000 -0.0000 -1.0000
vn 1.0000 -0.0000 -0.0000
vn -0.0000 -0.0000 1.0000
vt 0.450000 1.000000
vt 0.450000 0.000000
vt 0.475000 0.000000
vt 0.475000 1.000000
vt 0.500000 0.000000
vt 0.500000 1.000000
vt 0.525000 0.000000
vt 0.525000 1.000000
vt 0.550000 0.000000
vt 0.550000 1.000000
s 0
usemtl Material.001
f 33/41/17 34/42/17 36/43/17 35/44/17
f 35/44/18 36/43/18 40/45/18 39/46/18
f 39/46/19 40/45/19 38/47/19 37/48/19
f 37/48/20 38/47/20 34/49/20 33/50/20
o Cube.007
v -1.100000 0.000000 -1.900000
v -1.100000 5.000000 -1.900000
v -1.100000 0.000000 -2.100000
v -1.100000 5.000000 -2.100000
v -0.900000 0.000000 -1.900000
v -0.900000 5.000000 -1.900000
v -0.900000 0.000000 -2.100000
v -0.900000 5.000000 -2.100000
vn -1.0000 -0.0000 -0.0000
vn -0.0000 -0.0000 -1.0000
vn 1.0000 -0.0000 -0.0000
vn -0.0000 -0.0000 1.0000
vt 0.450000 1.000000
vt 0.450000 0.000000
vt 0.475000 0.000000
vt 0.475000 1.000000
vt 0.500000 0.000000
vt 0.500000 1.000000
vt 0.525000 0.000000
vt 0.525000 1.000000
vt 0.550000 0.000000
vt 0.550000 1.000000
s 0
usemtl Material.001
f 41/51/21 42/52/21 44/53/21 43/54/21
f 43/54/22 44/53/22 48/55/22 47/56/22
f 47/56/23 48/55/23 46/57/23 45/58/23
f 45/58/24 46/57/24 42/59/24 41/60/24
o Cube.008
v -1.100000 0.000000 2.100000
v -1.100000 5.000000 2.100000
v -1.100000 0.000000 1.900000
v -1.100000 5.000000 1.900000
v -0.900000 0.000000 2.100000
v -0.900000 5.000000 2.100000
v -0.900000 0.000000 1.900000
v -0.900000 5.000000 1.900000
vn -1.0000 -0.0000 -0.0000
vn -0.0000 -0.0000 -1.0000
vn 1.0000 -0.0000 -0.0000
vn -0.0000 -0.0000 1.0000
vt 0.450000 1.000000
vt 0.450000 0.000000
vt 0.475000 0.000000
vt 0.475000 1.000000
vt 0.500000 0.000000
vt 0.500000 1.000000
vt 0.525000 0.000000
vt 0.525000 1.000000
vt 0.550000 0.000000
vt 0.550000 1.000000
s 0
usemtl Material.001
f 49/61/25 50/62/25 52/63/25 51/64/25
f 51/64/26 52/63/26 56/65/26 55/66/26
f 55/66/27 56/65/27 54/67/27 53/68/27
f 53/68/28 54/67/28 50/69/28 49/70/28
o Cube.009
v 0.900000 0.000000 1.100000
v 0.900000 5.000000 1.100000
v 0.900000 0.000000 0.900000
v 0.900000 5.000000 0.900000
v 1.100000 0.000000 1.100000
v 1.100000 5.000000 1.100000
v 1.100000 0.000000 0.900000
v 1.100000 5.000000 0.900000
vn -1.0000 -0.0000 -0.0000
vn -0.0000 -0.0000 -1.0000
vn 1.0000 -0.0000 -0.0000
vn -0.0000 -0.0000 1.0000
vt 0.450000 1.000000
vt 0.450000 0.000000
vt 0.475000 0.000000
vt 0.475000 1.000000
vt 0.500000 0.000000
vt 0.500000 1.000000
vt 0.525000 0.000000
vt 0.525000 1.000000
vt 0.550000 0.000000
vt 0.550000 1.000000
s 0
usemtl Material.001
f 57/71/29 58/72/29 60/73/29 59/74/29
f 59/74/30 60/73/30 64/75/30 63/76/30
f 63/76/31 64/75/31 62/77/31 61/78/31
f 61/78/32 62/77/32 58/79/32 57/80/32
o Cube.010
v -2.100000 0.000000 1.100000
v -2.100000 5.000000 1.100000
v -2.100000 0.000000 0.900000
v -2.100000 5.000000 0.900000
v -1.900000 0.000000 1.100000
v -1.900000 5.000000 1.100000
v -1.900000 0.000000 0.900000
v -1.900000 5.000000 0.900000
vn -1.0000 -0.0000 -0.0000
vn -0.0000 -0.0000 -1.0000
vn 1.0000 -0.0000 -0.0000
vn -0.0000 -0.0000 1.0000
vt 0.450000 1.000000
vt 0.450000 0.000000
vt 0.475000 0.000000
vt 0.475000 1.000000
vt 0.500000 0.000000
vt 0.500000 1.000000
vt 0.525000 0.000000
vt 0.525000 1.000000
vt 0.550000 0.000000
vt 0.550000 1.000000
s 0
usemtl Material.001
f 65/81/33 66/82/33 68/83/33 67/84/33
f 67/84/34 68/83/34 72/85/34 71/86/34
f 71/86/35 72/85/35 70/87/35 69/88/35
f 69/88/36 70/87/36 66/89/36 65/90/36
o Cube.011
v 2.900000 0.000000 0.100000
v 2.900000 5.000000 0.100000
v 2.900000 0.000000 -0.100000
v 2.900000 5.000000 -0.100000
v 3.100000 0.000000 0.100000
v 3.100000 5.000000 0.100000
v 3.100000 0.000000 -0.100000
v 3.100000 5.000000 -0.100000
vn -1.0000 -0.0000 -0.0000
vn -0.0000 -0.0000 -1.0000
vn 1.0000 -0.0000 -0.0000
vn -0.0000 -0.0000 1.0000
vt 0.450000 1.000000
vt 0.450000 0.000000
vt 0.475000 0.000000
vt 0.475000 1.000000
vt 0.500000 0.000000
vt 0.500000 1.000000
vt 0.525000 0.000000
vt 0.525000 1.000000
vt 0.550000 0.000000
vt 0.550000 1.000000
s 0
usemtl Material.001
f 73/91/37 74/92/37 76/93/37 75/94/37
f 75/94/38 76/93/38 80/95/38 79/96/38
f 79/96/39 80/95/39 78/97/39 77/98/39
f 77/98/40 78/97/40 74/99/40 73/100/40
o Cube.012
v 3.900000 0.000000 -1.900000
v 3.900000 5.000000 -1.900000
v 3.900000 0.000000 -2.100000
v 3.900000 5.000000 -2.100000
v 4.100000 0.000000 -1.900000
v 4.100000 5.000000 -1.900000
v 4.100000 0.000000 -2.100000
v 4.100000 5.000000 -2.100000
vn -1.0000 -0.0000 -0.0000
vn -0.0000 -0.0000 -1.0000
vn 1.0000 -0.0000 -0.0000
vn -0.0000 -0.0000 1.0000
vt 0.450000 1.000000
vt 0.450000 0.000000
vt 0.475000 0.000000
vt 0.475000 1.000000
vt 0.500000 0.000000
vt 0.500000 1.000000
vt 0.525000 0.000000
vt 0.525000 1.000000
vt 0.550000 0.000000
vt 0.550000 1.000000
s 0
usemtl Material.001
f 81/101/41 82/102/41 84/103/41 83/104/41
f 83/104/42 84/103/42 88/105/42 87/106/42
f 87/106/43 88/105/43 86/107/43 85/108/43
f 85/108/44 86/107/44 82/109/44 81/110/44
o Cube.013
v 2.900000 0.000000 2.100000
v 2.900000 5.000000 2.100000
v 2.900000 0.000000 1.900000
v 2.900000 5.000000 1.900000
v 3.100000 0.000000 2.100000
v 3.100000 5.000000 2.100000
v 3.100000 0.000000 1.900000
v 3.100000 5.000000 1.900000
vn -1.0000 -0.0000 -0.0000
vn -0.0000 -0.0000 -1.0000
vn 1.0000 -0.0000 -0.0000
vn -0.0000 -0.0000 1.0000
vt 0.450000 1.000000
vt 0.450000 0.000000
vt 0.475000 0.000000
vt 0.475000 1.000000
vt 0.500000 0.000000
vt 0.500000 1.000000
vt 0.525000 0.000000
vt 0.525000 1.000000
vt 0.550000 0.000000
vt 0.550000 1.000000
s 0
usemtl Material.001
f 89/111/45 90/112/45 92/113/45 91/114/45
f 91/114/46 92/113/46 96/115/46 95/116/46
f 95/116/47 96/115/47 94/117/47 93/118/47
f 93/118/48 94/117/48 90/119/48 89/120/48
o Cube.014
v -4.100000 0.000000 0.100000
v -4.100000 5.000000 0.100000
v -4.100000 0.000000 -0.100000
v -4.100000 5.000000 -0.100000
v -3.900000 0.000000 0.100000
v -3.900000 5.000000 0.100000
v -3.900000 0.000000 -0.100000
v -3.900000 5.000000 -0.100000
vn -1.0000 -0.0000 -0.0000
vn -0.0000 -0.0000 -1.0000
vn 1.0000 -0.0000 -0.0000
vn -0.0000 -0.0000 1.0000
vt 0.450000 1.000000
vt 0.450000 0.000000
vt 0.475000 0.000000
vt 0.475000 1.000000
vt 0.500000 0.000000
vt 0.500000 1.000000
vt 0.525000 0.000000
vt 0.525000 1.000000
vt 0.550000 0.000000
vt 0.550000 1.000000
s 0
usemtl Material.001
f 97/121/49 98/122/49 100/123/49 99/124/49
f 99/124/50 100/123/50 104/125/50 103/126/50
f 103/126/51 104/125/51 102/127/51 101/128/51
f 101/128/52 102/127/52 98/129/52 97/130/52
o Cube.015
v -4.100000 0.000000 -1.900000
v -4.100000 5.000000 -1.900000
v -4.100000 0.000000 -2.100000
v -4.100000 5.000000 -2.100000
v -3.900000 0.000000 -1.900000
v -3.900000 5.000000 -1.900000
v -3.900000 0.000000 -2.100000
v -3.900000 5.000000 -2.100000
vn -1.0000 -0.0000 -0.0000
vn -0.0000 -0.0000 -1.0000
vn 1.0000 -0.0000 -0.0000
vn -0.0000 -0.0000 1.0000
vt 0.450000 1.000000
vt 0.450000 0.000000
vt 0.475000 0.000000
vt 0.475000 1.000000
vt 0.500000 0.000000
vt 0.500000 1.000000
vt 0.525000 0.000000
vt 0.525000 1.000000
vt 0.550000 0.000000
vt 0.550000 1.000000
s 0
usemtl Material.001
f 105/131/53 106/132/53 108/133/53 107/134/53
f 107/134/54 108/133/54 112/135/54 111/136/54
f 111/136/55 112/135/55 110/137/55 109/138/55
f 109/138/56 110/137/56 106/139/56 105/140/56
o Cube.016
v -3.100000 0.000000 2.100000
v -3.100000 5.000000 2.100000
v -3.100000 0.000000 1.900000
v -3.100000 5.000000 1.900000
v -2.900000 0.000000 2.100000
v -2.900000 5.000000 2.100000
v -2.900000 0.000000 1.900000
v -2.900000 5.000000 1.900000
vn -1.0000 -0.0000 -0.0000
vn -0.0000 -0.0000 -1.0000
vn 1.0000 -0.0000 -0.0000
vn -0.0000 -0.0000 1.0000
vt 0.450000 1.000000
vt 0.450000 0.000000
vt 0.475000 0.000000
vt 0.475000 1.000000
vt 0.500000 0.000000
vt 0.500000 1.000000
vt 0.525000 0.000000
vt 0.525000 1.000000
vt 0.550000 0.000000
vt 0.550000 1.000000
s 0
usemtl Material.001
f 113/141/57 114/142/57 116/143/57 115/144/57
f 115/144/58 116/143/58 120/145/58 119/146/58
f 119/146/59 120/145/59 118/147/59 117/148/59
f 117/148/60 118/147/60 114/149/60 113/150/60
o Cube.017
v -0.100000 0.000000 3.100000
v -0.100000 5.000000 3.100000
v -0.100000 0.000000 2.900000
v -0.100000 5.000000 2.900000
v 0.100000 0.000000 3.100000
v 0.100000 5.000000 3.100000
v 0.100000 0.000000 2.900000
v 0.100000 5.000000 2.900000
vn -1.0000 -0.0000 -0.0000
vn -0.0000 -0.0000 -1.0000
vn 1.0000 -0.0000 -0.0000
vn -0.0000 -0.0000 1.0000
vt 0.450000 1.000000
vt 0.450000 0.000000
vt 0.475000 0.000000
vt 0.475000 1.000000
vt 0.500000 0.000000
vt 0.500000 1.000000
vt 0.525000 0.000000
vt 0.525000 1.000000
vt 0.550000 0.000000
vt 0.550000 1.000000
s 0
usemtl Material.001
f 121/151/61 122/152/61 124/153/61 123/154/61
f 123/154/62 124/153/62 128/155/62 127/156/62
f 127/156/63 128/155/63 126/157/63 125/158/63
f 125/158/64 126/157/64 122/159/64 121/160/64
o Cube.018
v 1.900000 0.000000 3.100000
v 1.900000 5.000000 3.100000
v 1.900000 0.000000 2.900000
v 1.900000 5.000000 2.900000
v 2.100000 0.000000 3.100000
v 2.100000 5.000000 3.100000
v 2.100000 0.000000 2.900000
v 2.100000 5.000000 2.900000
vn -1.0000 -0.0000 -0.0000
vn -0.0000 -0.0000 -1.0000
vn 1.0000 -0.0000 -0.0000
vn -0.0000 -0.0000 1.0000
vt 0.450000 1.000000
vt 0.450000 0.000000
vt 0.475000 0.000000
vt 0.475000 1.000000
vt 0.500000 0.000000
vt 0.500000 1.000000
vt 0.525000 0.000000
vt 0.525000 1.000000
vt 0.550000 0.000000
vt 0.550000 1.000000
s 0
usemtl Material.001
f 129/161/65 130/162/65 132/163/65 131/164/65
f 131/164/66 132/163/66 136/165/66 135/166/66
f 135/166/67 136/165/67 134/167/67 133/168/67
f 133/168/68 134/167/68 130/169/68 129/170/68
o Cube.019
v -2.100000 0.000000 3.100000
v -2.100000 5.000000 3.100000
v -2.100000 0.000000 2.900000
v -2.100000 5.000000 2.900000
v -1.900000 0.000000 3.100000
v -1.900000 5.000000 3.100000
v -1.900000 0.000000 2.900000
v -1.900000 5.000000 2.900000
vn -1.0000 -0.0000 -0.0000
vn -0.0000 -0.0000 -1.0000
vn 1.0000 -0.0000 -0.0000
vn -0.0000 -0.0000 1.0000
vt 0.450000 1.000000
vt 0.450000 0.000000
vt 0.475000 0.000000
vt 0.475000 1.000000
vt 0.500000 0.000000
vt 0.500000 1.000000
vt 0.525000 0.000000
vt 0.525000 1.000000
vt 0.550000 0.000000
vt 0.550000 1.000000
s 0
usemtl Material.001
f 137/171/69 138/172/69 140/173/69 139/174/69
f 139/174/70 140/173/70 144/175/70 143/176/70
f 143/176/71 144/175/71 142/177/71 141/178/71
f 141/178/72 142/177/72 138/179/72 137/180/72
o Cube.020
v 3.900000 0.000000 4.100000
v 3.900000 5.000000 4.100000
v 3.900000 0.000000 3.900000
v 3.900000 5.000000 3.900000
v 4.100000 0.000000 4.100000
v 4.100000 5.000000 4.100000
v 4.100000 0.000000 3.900000
v 4.100000 5.000000 3.900000
vn -1.0000 -0.0000 -0.0000
vn -0.0000 -0.0000 -1.0000
vn 1.0000 -0.0000 -0.0000
vn -0.0000 -0.0000 1.0000
vt 0.450000 1.000000
vt 0.450000 0.000000
vt 0.475000 0.000000
vt 0.475000 1.000000
vt 0.500000 0.000000
vt 0.500000 1.000000
vt 0.525000 0.000000
vt 0.525000 1.000000
vt 0.550000 0.000000
vt 0.550000 1.000000
s 0
usemtl Material.001
f 145/181/73 146/182/73 148/183/73 147/184/73
f 147/184/74 148/183/74 152/185/74 151/186/74
f 151/186/75 152/185/75 150/187/75 149/188/75
f 149/188/76 150/187/76 146/189/76 145/190/76
o Cube.021
v -3.100000 0.000000 4.100000
v -3.100000 5.000000 4.100000
v -3.100000 0.000000 3.900000
v -3.100000 5.000000 3.900000
v -2.900000 0.000000 4.100000
v -2.900000 5.000000 4.100000
v -2.900000 0.000000 3.900000
v -2.900000 5.000000 3.900000
vn -1.0000 -0.0000 -0.0000
vn -0.0000 -0.0000 -1.0000
vn 1.0000 -0.0000 -0.0000
vn -0.0000 -0.0000 1.0000
vt 0.450000 1.000000
vt 0.450000 0.000000
vt 0.475000 0.000000
vt 0.475000 1.000000
vt 0.500000 0.000000
vt 0.500000 1.000000
vt 0.525000 0.000000
vt 0.525000 1.000000
vt 0.550000 0.000000
vt 0.550000 1.000000
s 0
usemtl Material.001
f 153/191/77 154/192/77 156/193/77 155/194/77
f 155/194/78 156/193/78 160/195/78 159/196/78
f 159/196/79 160/195/79 158/197/79 157/198/79
f 157/198/80 158/197/80 154/199/80 153/200/80
o Cube.022
v -0.100000 0.000000 -3.900000
v -0.100000 5.000000 -3.900000
v -0.100000 0.000000 -4.100000
v -0.100000 5.000000 -4.100000
v 0.100000 0.000000 -3.900000
v 0.100000 5.000000 -3.900000
v 0.100000 0.000000 -4.100000
v 0.100000 5.000000 -4.100000
vn -1.0000 -0.0000 -0.0000
vn -0.0000 -0.0000 -1.0000
vn 1.0000 -0.0000 -0.0000
vn -0.0000 -0.0000 1.0000
vt 0.450000 1.000000
vt 0.450000 0.000000
vt 0.475000 0.000000
vt 0.475000 1.000000
vt 0.500000 0.000000
vt 0.500000 1.000000
vt 0.525000 0.000000
vt 0.525000 1.000000
vt 0.550000 0.000000
vt 0.550000 1.000000
s 0
usemtl Material.001
f 161/201/81 162/202/81 164/203/81 163/204/81
f 163/204/82 164/203/82 168/205/82 167/206/82
f 167/206/83 168/205/83 166/207/83 165/208/83
f 165/208/84 166/207/84 162/209/84 161/210/84
o Cube.023
v 1.900000 0.000000 -3.900000
v 1.900000 5.000000 -3.900000
v 1.900000 0.000000 -4.100000
v 1.900000 5.000000 -4.100000
v 2.100000 0.000000 -3.900000
v 2.100000 5.000000 -3.900000
v 2.100000 0.000000 -4.100000
v 2.100000 5.000000 -4.100000
vn -1.0000 -0.0000 -0.0000
vn -0.0000 -0.0000 -1.0000
vn 1.0000 -0.0000 -0.0000
vn -0.0000 -0.0000 1.0000
vt 0.450000 1.000000
vt 0.450000 0.000000
vt 0.475000 0.000000
vt 0.475000 1.000000
vt 0.500000 0.000000
vt 0.500000 1.000000
vt 0.525000 0.000000
vt 0.525000 1.000000
vt 0.550000 0.000000
vt 0.550000 1.000000
s 0
usemtl Material.001
f 169/211/85 170/212/85 172/213/85 171/214/85
f 171/214/86 172/213/86 176/215/86 175/216/86
f 175/216/87 176/215/87 174/217/87 173/218/87
f 173/218/88 174/217/88 170/219/88 169/220/88
o Cube.024
v -1.100000 0.000000 -3.900000
v -1.100000 5.000000 -3.900000
v -1.100000 0.000000 -4.100000
v -1.100000 5.000000 -4.100000
v -0.900000 0.000000 -3.900000
v -0.900000 5.000000 -3.900000
v -0.900000 0.000000 -4.100000
v -0.900000 5.000000 -4.100000
vn -1.0000 -0.0000 -0.0000
vn -0.0000 -0.0000 -1.0000
vn 1.0000 -0.0000 -0.0000
vn -0.0000 -0.0000 1.0000
vt 0.450000 1.000000
vt 0.450000 0.000000
vt 0.475000 0.000000
vt 0.475000 1.000000
vt 0.500000 0.000000
vt 0.500000 1.000000
vt 0.525000 0.000000
vt 0.525000 1.000000
vt 0.550000 0.000000
vt 0.550000 1.000000
s 0
usemtl Material.001
f 177/221/89 178/222/89 180/223/89 179/224/89
f 179/224/90 180/223/90 184/225/90 183/226/90
f 183/226/91 184/225/91 182/227/91 181/228/91
f 181/228/92 182/227/92 178/229/92 177/230/92
o Cube.025
v 3.900000 0.000000 -2.900000
v 3.900000 5.000000 -2.900000
v 3.900000 0.000000 -3.100000
v 3.900000 5.000000 -3.100000
v 4.100000 0.000000 -2.900000
v 4.100000 5.000000 -2.900000
v 4.100000 0.000000 -3.100000
v 4.100000 5.000000 -3.100000
vn -1.0000 -0.0000 -0.0000
vn -0.0000 -0.0000 -1.0000
vn 1.0000 -0.0000 -0.0000
vn -0.0000 -0.0000 1.0000
vt 0.450000 1.000000
vt 0.450000 0.000000
vt 0.475000 0.000000
vt 0.475000 1.000000
vt 0.500000 0.000000
vt 0.500000 1.000000
vt 0.525000 0.000000
vt 0.525000 1.000000
vt 0.550000 0.000000
vt 0.550000 1.000000
s 0
usemtl Material.001
f 185/231/93 186/232/93 188/233/93 187/234/93
f 187/234/94 188/233/94 192/235/94 191/236/94
f 191/236/95 192/235/95 190/237/95 189/238/95
f 189/238/96 190/237/96 186/239/96 185/240/96
o Cube.026
v -3.100000 0.000000 -2.900000
v -3.100000 5.000000 -2.900000
v -3.100000 0.000000 -3.100000
v -3.100000 5.000000 -3.100000
v -2.900000 0.000000 -2.900000
v -2.900000 5.000000 -2.900000
v -2.900000 0.000000 -3.100000
v -2.900000 5.000000 -3.100000
vn -1.0000 -0.0000 -0.0000
vn -0.0000 -0.0000 -1.0000
vn 1.0000 -0.0000 -0.0000
vn -0.0000 -0.0000 1.0000
vt 0.450000 1.000000
vt 0.450000 0.000000
vt 0.475000 0.000000
vt 0.475000 1.000000
vt 0.500000 0.000000
vt 0.500000 1.000000
vt 0.525000 0.000000
vt 0.525000 1.000000
vt 0.550000 0.000000
vt 0.550000 1.000000
s 0
usemtl Material.001
f 193/241/97 194/242/97 196/243/97 195/244/97
f 195/244/98 196/243/98 200/245/98 199/246/98
f 199/246/99 200/245/99 198/247/99 197/248/99
f 197/248/100 198/247/100 194/249/100 193/250/100
