# Blender 5.1.2
# www.blender.org
mtllib OptimizedPillar.mtl
o Cube.001
v -1.000000 0.000000 1.000000
v -1.000000 5.000000 1.000000
v -1.000000 0.000000 -1.000000
v -1.000000 5.000000 -1.000000
v 1.000000 0.000000 1.000000
v 1.000000 5.000000 1.000000
v 1.000000 0.000000 -1.000000
v 1.000000 5.000000 -1.000000
vn -1.0000 -0.0000 -0.0000
vn -0.0000 -0.0000 -1.0000
vn 1.0000 -0.0000 -0.0000
vn -0.0000 -0.0000 1.0000
vt 0.000000 1.000000
vt 0.000000 0.000000
vt 0.250000 0.000000
vt 0.250000 1.000000
vt 0.500000 0.000000
vt 0.500000 1.000000
vt 0.750000 0.000000
vt 0.750000 1.000000
vt 1.000000 0.000000
vt 1.000000 1.000000
s 0
usemtl Material.001
f 1/1/1 2/2/1 4/3/1 3/4/1
f 3/4/2 4/3/2 8/5/2 7/6/2
f 7/6/3 8/5/3 6/7/3 5/8/3
f 5/8/4 6/7/4 2/9/4 1/10/4
